<?xml version="1.0" encoding="UTF-8" standalone="no"?>
<!-- Created with Inkscape (http://www.inkscape.org/) -->
<svg
   xmlns:dc="http://purl.org/dc/elements/1.1/"
   xmlns:cc="http://creativecommons.org/ns#"
   xmlns:rdf="http://www.w3.org/1999/02/22-rdf-syntax-ns#"
   xmlns:svg="http://www.w3.org/2000/svg"
   xmlns="http://www.w3.org/2000/svg"
   xmlns:xlink="http://www.w3.org/1999/xlink"
   xmlns:sodipodi="http://sodipodi.sourceforge.net/DTD/sodipodi-0.dtd"
   xmlns:inkscape="http://www.inkscape.org/namespaces/inkscape"
   width="64"
   height="64"
   id="svg2"
   sodipodi:version="0.32"
   inkscape:version="0.46"
   version="1.0"
   sodipodi:docname="steam condenser.svg"
   inkscape:output_extension="org.inkscape.output.svg.inkscape">
  <defs
     id="defs4">
    <linearGradient
       id="linearGradient3157">
      <stop
         style="stop-color:#205272;stop-opacity:0.23137255;"
         offset="0"
         id="stop3159" />
      <stop
         style="stop-color:#205272;stop-opacity:1;"
         offset="1"
         id="stop3161" />
    </linearGradient>
    <inkscape:perspective
       sodipodi:type="inkscape:persp3d"
       inkscape:vp_x="0 : 526.18109 : 1"
       inkscape:vp_y="0 : 1000 : 0"
       inkscape:vp_z="744.09448 : 526.18109 : 1"
       inkscape:persp3d-origin="372.04724 : 350.78739 : 1"
       id="perspective10" />
    <radialGradient
       inkscape:collect="always"
       xlink:href="#linearGradient3157"
       id="radialGradient3383"
       gradientUnits="userSpaceOnUse"
       gradientTransform="matrix(1.8243243,0,0,1.9078604,-25.101349,-24.45978)"
       cx="31.299999"
       cy="44.007298"
       fx="31.299999"
       fy="44.007298"
       r="15.042642" />
  </defs>
  <sodipodi:namedview
     id="base"
     pagecolor="#ffffff"
     bordercolor="#666666"
     borderopacity="1.0"
     inkscape:pageopacity="0.0"
     inkscape:pageshadow="2"
     inkscape:zoom="4.28"
     inkscape:cx="50.843773"
     inkscape:cy="3.9595855"
     inkscape:document-units="px"
     inkscape:current-layer="layer1"
     showgrid="false"
     inkscape:window-width="1280"
     inkscape:window-height="977"
     inkscape:window-x="-4"
     inkscape:window-y="-4" />
  <metadata
     id="metadata7">
    <rdf:RDF>
      <cc:Work
         rdf:about="">
        <dc:format>image/svg+xml</dc:format>
        <dc:type
           rdf:resource="http://purl.org/dc/dcmitype/StillImage" />
      </cc:Work>
    </rdf:RDF>
  </metadata>
  <g
     inkscape:label="Ebene 1"
     inkscape:groupmode="layer"
     id="layer1"
     style="display:inline">
    <path
       style="opacity:1;fill:url(#radialGradient3383);fill-opacity:1;fill-rule:nonzero;stroke:#205272;stroke-width:0.99999994000000003;stroke-linecap:butt;stroke-linejoin:round;stroke-miterlimit:4;stroke-dasharray:none;stroke-dashoffset:0;stroke-opacity:1"
       d="M 32 5 C 17.096 5 5.0000002 17.096 5 32 C 5 46.904 17.096 59 32 59 C 46.904 59 59 46.904 59 32 C 59 17.096 46.904 4.9999998 32 5 z M 38.25 14.4375 C 38.538333 14.4375 38.836665 14.4375 39.125 14.4375 C 39.281302 14.446366 39.437486 14.458776 39.59375 14.46875 C 39.749948 14.470303 39.906263 14.468306 40.0625 14.46875 C 40.211718 14.47774 40.350825 14.489822 40.5 14.5 C 40.673801 14.530671 40.857451 14.563079 41.03125 14.59375 C 41.284383 14.626577 41.527993 14.655503 41.78125 14.6875 C 42.1875 14.78125 42.59375 14.875 43 14.96875 C 43.25 15.052083 43.5 15.135417 43.75 15.21875 C 43.864583 15.270833 43.979167 15.322917 44.09375 15.375 C 44.21875 15.416667 44.34375 15.458333 44.46875 15.5 C 44.611689 15.58168 44.76331 15.66832 44.90625 15.75 C 44.981037 15.784958 45.049362 15.810499 45.125 15.84375 C 45.226308 15.904535 45.336192 15.970464 45.4375 16.03125 C 45.722118 16.219659 45.997056 16.40467 46.28125 16.59375 C 46.362075 16.664472 46.450425 16.741777 46.53125 16.8125 C 46.701337 16.980388 46.861922 17.143802 47.03125 17.3125 C 47.021564 17.361123 47.069744 17.371584 47.09375 17.40625 C 47.139214 17.444842 47.187084 17.512597 47.21875 17.5625 C 47.268799 17.626519 47.323514 17.687054 47.375 17.75 C 47.430397 17.824566 47.476836 17.893425 47.53125 17.96875 C 47.521932 17.999156 47.543163 18.012712 47.5625 18.03125 C 47.598657 18.05044 47.594321 18.090597 47.59375 18.125 C 47.583096 18.159292 47.605411 18.165736 47.625 18.1875 C 47.670043 18.20774 47.6478 18.290045 47.6875 18.3125 C 47.723826 18.337173 47.730779 18.384476 47.78125 18.375 C 47.78125 18.420417 47.78125 18.454583 47.78125 18.5 C 47.771411 18.526923 47.795348 18.531319 47.8125 18.53125 C 47.8125 18.56625 47.8125 18.59 47.8125 18.625 C 47.800356 18.655178 47.847942 18.660616 47.84375 18.6875 C 47.833911 18.714423 47.857848 18.718819 47.875 18.71875 C 47.875 18.75375 47.875 18.7775 47.875 18.8125 C 47.865161 18.839423 47.889098 18.843819 47.90625 18.84375 C 47.90625 18.885417 47.90625 18.927083 47.90625 18.96875 C 47.947917 19.114583 47.989583 19.260417 48.03125 19.40625 C 48.03125 19.50375 48.03125 19.59 48.03125 19.6875 C 48.037689 19.701894 48.006108 19.754308 48.03125 19.75 C 48.066579 19.738837 48.057149 19.793684 48.0625 19.8125 C 48.056841 19.859471 48.081407 19.908961 48.03125 19.9375 C 48.03125 20.035 48.03125 20.12125 48.03125 20.21875 C 48.024811 20.233144 48.056392 20.285558 48.03125 20.28125 C 47.998636 20.269886 48.003335 20.294584 48 20.3125 C 47.991583 20.357912 48.0136 20.43843 47.96875 20.46875 C 47.950232 20.507478 47.980368 20.552163 47.96875 20.59375 C 47.932593 20.61294 47.936929 20.653097 47.9375 20.6875 C 47.948154 20.721792 47.925839 20.728236 47.90625 20.75 C 47.861207 20.77024 47.88345 20.852545 47.84375 20.875 C 47.820864 20.884002 47.851971 20.891173 47.84375 20.90625 C 47.816698 20.922544 47.807845 20.939322 47.8125 20.96875 C 47.822339 20.995673 47.798402 21.000069 47.78125 21 C 47.78125 21.041667 47.78125 21.083333 47.78125 21.125 C 47.755334 21.142617 47.750159 21.183144 47.71875 21.1875 C 47.686611 21.176194 47.690533 21.20095 47.6875 21.21875 C 47.676136 21.251364 47.700834 21.246665 47.71875 21.25 C 47.764162 21.258417 47.844681 21.236399 47.875 21.28125 C 47.912993 21.298165 47.957182 21.275983 48 21.28125 C 48.083333 21.302083 48.166667 21.322917 48.25 21.34375 C 48.3125 21.34375 48.375 21.34375 48.4375 21.34375 C 48.496838 21.363529 48.565662 21.38647 48.625 21.40625 C 48.686294 21.413682 48.750346 21.404105 48.8125 21.40625 C 48.859471 21.411909 48.908961 21.387343 48.9375 21.4375 C 49.014167 21.4375 49.079583 21.4375 49.15625 21.4375 C 49.186428 21.425356 49.191866 21.472942 49.21875 21.46875 C 49.245673 21.458911 49.250069 21.482848 49.25 21.5 C 49.295417 21.5 49.329583 21.5 49.375 21.5 C 49.401923 21.490161 49.406319 21.514098 49.40625 21.53125 C 49.475833 21.53125 49.555415 21.53125 49.625 21.53125 C 49.661916 21.537041 49.688579 21.509177 49.71875 21.53125 C 49.73899 21.576293 49.821295 21.55405 49.84375 21.59375 C 49.854095 21.62144 49.862577 21.571078 49.875 21.59375 C 49.89023 21.623372 49.941616 21.624112 49.96875 21.625 C 50.008337 21.632389 50.065254 21.622079 50.09375 21.65625 C 50.102752 21.679136 50.109921 21.648031 50.125 21.65625 C 50.146074 21.696911 50.181757 21.685269 50.21875 21.6875 C 50.245673 21.677661 50.250069 21.701598 50.25 21.71875 C 50.302083 21.71875 50.354167 21.71875 50.40625 21.71875 C 50.475962 21.738668 50.55529 21.761332 50.625 21.78125 C 50.698909 21.809707 50.770546 21.844553 50.84375 21.875 C 50.918876 21.899548 50.986665 21.914944 51.0625 21.9375 C 51.177507 21.958259 51.291209 21.979614 51.40625 22 C 51.445086 21.983048 51.463912 22.041562 51.5 22.03125 C 51.548935 22.017434 51.56168 22.066848 51.59375 22.09375 C 51.617872 22.08818 51.642541 22.105434 51.65625 22.125 C 51.690909 22.141917 51.741752 22.119761 51.78125 22.125 C 51.822406 22.11387 51.849406 22.161055 51.875 22.1875 C 51.888381 22.215907 51.925186 22.187761 51.9375 22.21875 C 51.946502 22.241636 51.953671 22.210531 51.96875 22.21875 C 51.98794 22.254907 52.028097 22.250571 52.0625 22.25 C 52.091153 22.241538 52.107867 22.261901 52.125 22.28125 C 52.182492 22.264884 52.191988 22.36137 52.25 22.34375 C 52.277163 22.335865 52.310742 22.348355 52.3125 22.375 C 52.301194 22.407139 52.32595 22.403217 52.34375 22.40625 C 52.370673 22.396411 52.375069 22.420348 52.375 22.4375 C 52.416667 22.4375 52.458333 22.4375 52.5 22.4375 C 52.557146 22.420963 52.567814 22.516633 52.625 22.5 C 52.655406 22.490682 52.66896 22.511915 52.6875 22.53125 C 52.70669 22.567407 52.746847 22.563071 52.78125 22.5625 C 52.834322 22.615572 52.884426 22.665678 52.9375 22.71875 C 52.958574 22.759411 52.994257 22.747769 53.03125 22.75 C 53.058173 22.740161 53.062569 22.764098 53.0625 22.78125 C 53.094092 22.782794 53.138199 22.778267 53.15625 22.8125 C 53.206539 22.856171 53.260961 22.895225 53.3125 22.9375 C 53.376561 22.982675 53.435081 23.018499 53.5 23.0625 C 53.549726 23.112226 53.606525 23.169024 53.65625 23.21875 C 53.706539 23.262421 53.760961 23.301475 53.8125 23.34375 C 53.87439 23.401941 53.939346 23.471676 54 23.53125 C 54.036326 23.555923 54.043279 23.603226 54.09375 23.59375 C 54.09375 23.625 54.09375 23.65625 54.09375 23.6875 C 54.119666 23.705117 54.124841 23.745644 54.15625 23.75 C 54.191579 23.738837 54.182149 23.793684 54.1875 23.8125 C 54.173684 23.861435 54.223098 23.87418 54.25 23.90625 C 54.241538 23.934903 54.261901 23.951617 54.28125 23.96875 C 54.271932 23.999156 54.293163 24.012712 54.3125 24.03125 C 54.353161 24.052324 54.341519 24.088007 54.34375 24.125 C 54.333911 24.151923 54.357848 24.156319 54.375 24.15625 C 54.395833 24.270833 54.416667 24.385417 54.4375 24.5 C 54.4375 24.649583 54.4375 24.787917 54.4375 24.9375 C 54.448531 24.966031 54.420425 24.965426 54.40625 24.96875 C 54.423202 25.007586 54.364688 25.026414 54.375 25.0625 C 54.369209 25.099416 54.397073 25.126079 54.375 25.15625 C 54.345378 25.17148 54.344638 25.222868 54.34375 25.25 C 54.327091 25.290627 54.278538 25.308043 54.25 25.34375 C 54.220241 25.403269 54.18601 25.471731 54.15625 25.53125 C 54.115282 25.598002 54.074021 25.653044 54.03125 25.71875 C 53.931797 25.818203 53.818204 25.931796 53.71875 26.03125 C 53.705369 26.059657 53.668564 26.031511 53.65625 26.0625 C 53.627843 26.075881 53.655989 26.112686 53.625 26.125 C 53.595233 26.167133 53.570669 26.158761 53.53125 26.1875 C 53.492658 26.232964 53.424905 26.280834 53.375 26.3125 C 53.322739 26.335163 53.286819 26.36251 53.25 26.40625 C 53.1875 26.447917 53.125 26.489583 53.0625 26.53125 C 53 26.552083 52.9375 26.572917 52.875 26.59375 C 52.71875 26.6875 52.5625 26.78125 52.40625 26.875 C 52.159327 26.977885 51.903172 27.084614 51.65625 27.1875 C 51.578278 27.212878 51.515926 27.225847 51.4375 27.25 C 51.386284 27.270749 51.336864 27.2876 51.28125 27.28125 C 51.251072 27.269106 51.245634 27.316692 51.21875 27.3125 C 51.188572 27.300356 51.183134 27.347942 51.15625 27.34375 C 51.129327 27.333911 51.124931 27.357848 51.125 27.375 C 51.079583 27.375 51.045417 27.375 51 27.375 C 50.973077 27.365161 50.968681 27.389098 50.96875 27.40625 C 50.934458 27.395596 50.928014 27.417911 50.90625 27.4375 C 50.88813 27.479615 50.836808 27.441577 50.8125 27.46875 C 50.79727 27.498372 50.745884 27.499112 50.71875 27.5 C 50.681834 27.505791 50.655171 27.477927 50.625 27.5 C 50.60977 27.529622 50.558384 27.530362 50.53125 27.53125 C 50.484279 27.536909 50.434789 27.512343 50.40625 27.5625 C 50.377597 27.554038 50.360883 27.574401 50.34375 27.59375 C 50.34375 27.677083 50.34375 27.760417 50.34375 27.84375 C 50.322917 27.84375 50.302083 27.84375 50.28125 27.84375 C 50.28125 27.875 50.28125 27.90625 50.28125 27.9375 C 50.297787 27.994646 50.202117 28.005314 50.21875 28.0625 C 50.135417 28.145833 50.052083 28.229167 49.96875 28.3125 C 49.979491 28.350162 49.926589 28.38146 49.90625 28.40625 C 49.869924 28.430923 49.862971 28.478226 49.8125 28.46875 C 49.75 28.53125 49.6875 28.59375 49.625 28.65625 C 49.5625 28.697917 49.5 28.739583 49.4375 28.78125 C 49.354167 28.822917 49.270833 28.864583 49.1875 28.90625 C 49.288572 28.946679 49.398928 28.990821 49.5 29.03125 C 49.60667 29.065434 49.70534 29.092221 49.8125 29.125 C 49.90625 29.166667 50 29.208333 50.09375 29.25 C 50.197917 29.28125 50.302083 29.3125 50.40625 29.34375 C 50.53125 29.416667 50.65625 29.489583 50.78125 29.5625 C 50.84375 29.583333 50.90625 29.604167 50.96875 29.625 C 51.020833 29.65625 51.072917 29.6875 51.125 29.71875 C 51.184939 29.768699 51.252562 29.82505 51.3125 29.875 C 51.37626 29.920542 51.435169 29.955892 51.5 30 C 51.57056 30.07056 51.648191 30.14819 51.71875 30.21875 C 51.739292 30.250121 51.784825 30.27114 51.78125 30.3125 C 51.808583 30.363437 51.867073 30.391469 51.90625 30.4375 C 51.895253 30.481935 51.946806 30.50046 51.96875 30.53125 C 51.957753 30.575685 52.009306 30.59421 52.03125 30.625 C 52.051029 30.684338 52.07397 30.753162 52.09375 30.8125 C 52.101199 30.870458 52.091622 30.909929 52.09375 30.96875 C 52.083911 30.995673 52.107848 31.000069 52.125 31 C 52.125 31.024583 52.125 31.037917 52.125 31.0625 C 52.134839 31.089423 52.110902 31.093819 52.09375 31.09375 C 52.09375 31.166667 52.09375 31.239583 52.09375 31.3125 C 52.062791 31.334037 52.044661 31.386544 52 31.375 C 52 31.413333 52 31.461667 52 31.5 C 52.013981 31.550402 51.964677 31.560395 51.9375 31.59375 C 51.901343 31.61294 51.905679 31.653097 51.90625 31.6875 C 51.817214 31.776536 51.714037 31.879713 51.625 31.96875 C 51.588674 31.993423 51.581721 32.040726 51.53125 32.03125 C 51.483881 32.078619 51.42237 32.14013 51.375 32.1875 C 51.365998 32.210386 51.358829 32.179279 51.34375 32.1875 C 51.32456 32.223657 51.284403 32.219321 51.25 32.21875 C 51.197917 32.270833 51.145833 32.322917 51.09375 32.375 C 51.061856 32.368568 51.02742 32.39373 51 32.40625 C 50.951598 32.444199 50.920283 32.488973 50.875 32.53125 C 50.8125 32.552083 50.75 32.572917 50.6875 32.59375 C 50.635417 32.625 50.583333 32.65625 50.53125 32.6875 C 50.4375 32.71875 50.34375 32.75 50.25 32.78125 C 50.166667 32.822917 50.083333 32.864583 50 32.90625 C 49.895833 32.9375 49.791667 32.96875 49.6875 33 C 49.596796 33.040313 49.496956 33.084689 49.40625 33.125 C 49.310158 33.159418 49.221675 33.185834 49.125 33.21875 C 49.0625 33.229167 49 33.239583 48.9375 33.25 C 48.908847 33.241538 48.892133 33.261901 48.875 33.28125 C 48.843408 33.282794 48.799301 33.278268 48.78125 33.3125 C 48.742522 33.331018 48.697839 33.300882 48.65625 33.3125 C 48.636854 33.349164 48.597204 33.344039 48.5625 33.34375 C 48.535337 33.335865 48.501758 33.348355 48.5 33.375 C 48.511163 33.410329 48.456318 33.400899 48.4375 33.40625 C 48.390529 33.411909 48.341039 33.387343 48.3125 33.4375 C 48.242883 33.447445 48.163367 33.458806 48.09375 33.46875 C 48.028153 33.472073 47.972015 33.467791 47.90625 33.46875 C 47.78125 33.510417 47.65625 33.552083 47.53125 33.59375 C 47.399128 33.614076 47.257122 33.635925 47.125 33.65625 C 46.99687 33.668564 46.878266 33.676339 46.75 33.6875 C 46.503288 33.728619 46.246711 33.771381 46 33.8125 C 45.270916 33.917203 44.541643 34.020681 43.8125 34.125 C 43.444689 34.167697 43.086621 34.207768 42.71875 34.25 C 42.458333 34.3125 42.197917 34.375 41.9375 34.4375 C 41.6875 34.458333 41.4375 34.479167 41.1875 34.5 C 40.677083 34.614583 40.166667 34.729167 39.65625 34.84375 C 39.052083 34.916667 38.447917 34.989583 37.84375 35.0625 C 37.75 35.114583 37.65625 35.166667 37.5625 35.21875 C 37.5 35.21875 37.4375 35.21875 37.375 35.21875 C 37.3125 35.229167 37.25 35.239583 37.1875 35.25 C 37.110833 35.25 37.045417 35.25 36.96875 35.25 C 36.941827 35.240161 36.937431 35.264098 36.9375 35.28125 C 36.927807 35.276776 36.898577 35.30309 36.90625 35.28125 C 36.917556 35.249111 36.8928 35.253033 36.875 35.25 C 36.848077 35.240161 36.843681 35.264098 36.84375 35.28125 C 36.798333 35.28125 36.764167 35.28125 36.71875 35.28125 C 36.704356 35.274811 36.651942 35.306392 36.65625 35.28125 C 36.661629 35.262121 36.643317 35.245435 36.625 35.25 C 36.578029 35.255659 36.528539 35.231093 36.5 35.28125 C 36.465708 35.270596 36.459264 35.292911 36.4375 35.3125 C 36.418677 35.349592 36.374564 35.332853 36.34375 35.34375 C 36.292534 35.364499 36.243114 35.38135 36.1875 35.375 C 36.160577 35.384839 36.156181 35.360902 36.15625 35.34375 C 36.13782 35.349016 36.112179 35.369735 36.09375 35.375 C 36.035346 35.389368 35.996635 35.397101 35.9375 35.40625 C 35.910577 35.416089 35.906181 35.392152 35.90625 35.375 C 35.885417 35.375 35.864583 35.375 35.84375 35.375 C 35.822928 35.418165 35.810242 35.484967 35.75 35.46875 C 35.723077 35.478589 35.718681 35.454652 35.71875 35.4375 C 35.697917 35.4375 35.677083 35.4375 35.65625 35.4375 C 35.624534 35.471462 35.579816 35.504094 35.53125 35.5 C 35.491207 35.545142 35.427515 35.566323 35.40625 35.625 C 35.403183 35.653746 35.394156 35.653537 35.375 35.65625 C 35.349475 35.647244 35.322668 35.671658 35.3125 35.6875 C 35.307884 35.732799 35.276331 35.70698 35.25 35.71875 C 35.231035 35.755448 35.190389 35.749933 35.15625 35.75 C 35.15625 35.770833 35.15625 35.791667 35.15625 35.8125 C 35.124285 35.820491 35.094468 35.835758 35.0625 35.84375 C 35.028792 35.838438 35.028481 35.874676 35 35.875 C 34.964671 35.863837 34.974101 35.918682 34.96875 35.9375 C 34.957803 35.969199 34.900105 35.975878 34.875 36 C 34.865897 36.007396 34.837119 36.020658 34.84375 36 C 34.853589 35.973077 34.829652 35.968681 34.8125 35.96875 C 34.8125 36 34.8125 36.03125 34.8125 36.0625 C 34.79125 36.0625 34.771251 36.0625 34.75 36.0625 C 34.711164 36.045548 34.692338 36.104062 34.65625 36.09375 C 34.606081 36.113207 34.596317 36.178146 34.5625 36.21875 C 34.545256 36.199669 34.528912 36.178413 34.5 36.1875 C 34.508462 36.216153 34.488099 36.232867 34.46875 36.25 C 34.423547 36.236494 34.430822 36.287458 34.40625 36.3125 C 34.377667 36.331854 34.374364 36.39029 34.34375 36.40625 C 34.322337 36.438667 34.297118 36.400371 34.28125 36.375 C 34.260417 36.395833 34.239583 36.416667 34.21875 36.4375 C 34.228119 36.472925 34.192278 36.510082 34.15625 36.5 C 34.167493 36.53787 34.113939 36.568898 34.09375 36.59375 C 34.083333 36.613217 34.072918 36.577383 34.0625 36.5625 C 34.047954 36.534171 34.051259 36.588425 34.03125 36.59375 C 34.002216 36.615595 33.955106 36.590284 33.9375 36.5625 C 33.666667 36.854167 33.395833 37.145833 33.125 37.4375 C 33 37.510417 32.875 37.583333 32.75 37.65625 C 32.59375 37.708333 32.4375 37.760417 32.28125 37.8125 C 32.15625 37.8125 32.03125 37.8125 31.90625 37.8125 C 31.552083 37.677083 31.197917 37.541667 30.84375 37.40625 C 30.677083 37.270833 30.510417 37.135417 30.34375 37 C 30.197917 36.84375 30.052083 36.6875 29.90625 36.53125 C 29.815131 36.46038 29.716117 36.383372 29.625 36.3125 C 29.600011 36.281021 29.552436 36.265743 29.5625 36.21875 C 29.517488 36.173738 29.482511 36.138761 29.4375 36.09375 C 29.404687 36.068645 29.382092 36.01176 29.34375 36 C 29.316827 36.009839 29.312431 35.985902 29.3125 35.96875 C 29.283847 35.977212 29.267133 35.956849 29.25 35.9375 C 29.264054 35.893289 29.212045 35.89637 29.1875 35.875 C 29.168535 35.838302 29.127889 35.843817 29.09375 35.84375 C 29.09375 35.812083 29.09375 35.781668 29.09375 35.75 C 29.106923 35.708725 29.054502 35.709283 29.03125 35.6875 C 28.996864 35.677801 28.975211 35.618882 28.9375 35.625 C 28.910918 35.634082 28.96563 35.58312 28.9375 35.59375 C 28.907322 35.605894 28.901884 35.558308 28.875 35.5625 C 28.848077 35.572339 28.843681 35.548402 28.84375 35.53125 C 28.827432 35.513898 28.839284 35.469169 28.8125 35.46875 C 28.782322 35.480894 28.776884 35.433308 28.75 35.4375 C 28.717861 35.448806 28.721783 35.42405 28.71875 35.40625 C 28.730894 35.376072 28.683308 35.370634 28.6875 35.34375 C 28.698649 35.311768 28.673901 35.315683 28.65625 35.3125 C 28.626072 35.324644 28.620634 35.277058 28.59375 35.28125 C 28.566101 35.291399 28.56288 35.267121 28.5625 35.25 C 28.570385 35.222837 28.557895 35.189258 28.53125 35.1875 C 28.504327 35.197339 28.499931 35.173402 28.5 35.15625 C 28.465 35.15625 28.44125 35.15625 28.40625 35.15625 C 28.368822 35.169414 28.398772 35.134766 28.375 35.125 C 28.342187 35.099895 28.319592 35.04301 28.28125 35.03125 C 28.266856 35.024811 28.214442 35.056392 28.21875 35.03125 C 28.230321 34.998294 28.203818 35.008922 28.1875 35 C 28.136284 34.979251 28.086864 34.9624 28.03125 34.96875 C 28.004327 34.958911 27.999931 34.982848 28 35 C 27.971912 34.990637 27.934338 34.978113 27.90625 34.96875 C 27.874652 34.953884 27.862309 34.976051 27.84375 35 C 27.827456 35.027052 27.810678 35.035905 27.78125 35.03125 C 27.749111 35.019944 27.753033 35.0447 27.75 35.0625 C 27.761306 35.094639 27.73655 35.090717 27.71875 35.09375 C 27.688572 35.081606 27.683134 35.129192 27.65625 35.125 C 27.629327 35.115161 27.624931 35.139098 27.625 35.15625 C 27.579583 35.15625 27.545417 35.15625 27.5 35.15625 C 27.473077 35.166089 27.468681 35.142152 27.46875 35.125 C 27.459057 35.129474 27.429827 35.10316 27.4375 35.125 C 27.447339 35.151923 27.423402 35.156319 27.40625 35.15625 C 27.377597 35.147788 27.360883 35.168151 27.34375 35.1875 C 27.228733 35.205965 27.113968 35.225808 27 35.25 C 26.770833 35.3125 26.541667 35.375 26.3125 35.4375 C 26.229167 35.416667 26.145833 35.395833 26.0625 35.375 C 25.895833 35.395833 25.729167 35.416667 25.5625 35.4375 C 25.461192 35.376715 25.351308 35.310784 25.25 35.25 C 25.195205 35.230697 25.146505 35.264581 25.09375 35.28125 C 25.01375 35.28125 24.92375 35.28125 24.84375 35.28125 C 24.817168 35.290332 24.87188 35.23937 24.84375 35.25 C 24.813572 35.262144 24.808134 35.214558 24.78125 35.21875 C 24.754327 35.228589 24.749931 35.204652 24.75 35.1875 C 24.694167 35.1875 24.649583 35.1875 24.59375 35.1875 C 24.566827 35.197339 24.562431 35.173402 24.5625 35.15625 C 24.533847 35.164712 24.517133 35.144349 24.5 35.125 C 24.471347 35.133462 24.454633 35.113099 24.4375 35.09375 C 24.413378 35.09932 24.38871 35.082065 24.375 35.0625 C 24.337007 35.045585 24.292818 35.067767 24.25 35.0625 C 24.25 35.041667 24.25 35.020833 24.25 35 C 24.207772 34.997979 24.165174 35.006981 24.125 35 C 24.108706 34.972948 24.091928 34.964095 24.0625 34.96875 C 24.032322 34.980894 24.026884 34.933308 24 34.9375 C 23.973077 34.947339 23.968681 34.923402 23.96875 34.90625 C 23.9375 34.90625 23.90625 34.90625 23.875 34.90625 C 23.845567 34.91559 23.830903 34.892289 23.8125 34.875 C 23.760214 34.87312 23.706464 34.881886 23.65625 34.875 C 23.63706 34.838843 23.596903 34.843179 23.5625 34.84375 C 23.533067 34.85309 23.518403 34.829789 23.5 34.8125 C 23.472837 34.820385 23.439258 34.807895 23.4375 34.78125 C 23.448806 34.749111 23.42405 34.753033 23.40625 34.75 C 23.391856 34.743561 23.339442 34.775142 23.34375 34.75 C 23.353589 34.723077 23.329652 34.718681 23.3125 34.71875 C 23.3125 34.677083 23.3125 34.635417 23.3125 34.59375 C 23.25 34.59375 23.1875 34.59375 23.125 34.59375 C 23.125 34.572917 23.125 34.552083 23.125 34.53125 C 23.069167 34.53125 23.024583 34.53125 22.96875 34.53125 C 22.936611 34.542556 22.940533 34.5178 22.9375 34.5 C 22.948663 34.464671 22.893816 34.474101 22.875 34.46875 C 22.833844 34.47988 22.806844 34.432695 22.78125 34.40625 C 22.744924 34.381577 22.737971 34.334274 22.6875 34.34375 C 22.6875 34.30875 22.6875 34.285 22.6875 34.25 C 22.698663 34.214671 22.643816 34.224101 22.625 34.21875 C 22.569006 34.216769 22.522702 34.225664 22.46875 34.21875 C 22.452456 34.191698 22.435678 34.182845 22.40625 34.1875 C 22.376072 34.199644 22.370634 34.152058 22.34375 34.15625 C 22.316827 34.166089 22.312431 34.142152 22.3125 34.125 C 22.291667 34.125 22.270833 34.125 22.25 34.125 C 22.25 34.104167 22.25 34.083333 22.25 34.0625 C 22.225417 34.0625 22.212083 34.0625 22.1875 34.0625 C 22.160577 34.072339 22.156181 34.048402 22.15625 34.03125 C 22.135417 34.03125 22.114583 34.03125 22.09375 34.03125 C 22.09375 34.010417 22.09375 33.989583 22.09375 33.96875 C 22.072917 33.96875 22.052083 33.96875 22.03125 33.96875 C 22.03125 33.947917 22.03125 33.927083 22.03125 33.90625 C 21.986815 33.917247 21.96829 33.865694 21.9375 33.84375 C 21.946818 33.813344 21.925585 33.79979 21.90625 33.78125 C 21.889956 33.754198 21.873178 33.745345 21.84375 33.75 C 21.813572 33.762144 21.808134 33.714558 21.78125 33.71875 C 21.754327 33.728589 21.749931 33.704652 21.75 33.6875 C 21.715 33.6875 21.69125 33.6875 21.65625 33.6875 C 21.624111 33.698806 21.628033 33.67405 21.625 33.65625 C 21.630379 33.637121 21.612065 33.620435 21.59375 33.625 C 21.554163 33.617611 21.497246 33.627921 21.46875 33.59375 C 21.432424 33.569077 21.425471 33.521774 21.375 33.53125 C 21.357756 33.512169 21.341412 33.490913 21.3125 33.5 C 21.3125 33.458333 21.3125 33.416667 21.3125 33.375 C 21.281541 33.353463 21.263411 33.300956 21.21875 33.3125 C 21.201133 33.286584 21.160606 33.281409 21.15625 33.25 C 21.167556 33.217861 21.1428 33.221783 21.125 33.21875 C 21.092861 33.230056 21.096783 33.2053 21.09375 33.1875 C 21.103589 33.160577 21.079652 33.156181 21.0625 33.15625 C 21.064109 33.137102 21.050581 33.104226 21.03125 33.09375 C 21.020905 33.06606 21.012423 33.116422 21 33.09375 C 20.97976 33.048707 20.897455 33.07095 20.875 33.03125 C 20.836724 33.002232 20.837685 32.953929 20.78125 32.96875 C 20.754327 32.978589 20.749931 32.954652 20.75 32.9375 C 20.724084 32.919883 20.718909 32.879356 20.6875 32.875 C 20.657322 32.887144 20.651884 32.839558 20.625 32.84375 C 20.610606 32.837311 20.558192 32.868892 20.5625 32.84375 C 20.572339 32.816827 20.548402 32.812431 20.53125 32.8125 C 20.509713 32.781541 20.457206 32.763411 20.46875 32.71875 C 20.447917 32.71875 20.427083 32.71875 20.40625 32.71875 C 20.40625 32.697917 20.40625 32.677083 20.40625 32.65625 C 20.385417 32.65625 20.364583 32.65625 20.34375 32.65625 C 20.34375 32.625 20.34375 32.59375 20.34375 32.5625 C 20.324669 32.545256 20.303413 32.528912 20.3125 32.5 C 20.293419 32.482756 20.272163 32.466412 20.28125 32.4375 C 20.255334 32.419883 20.250159 32.379356 20.21875 32.375 C 20.186611 32.386306 20.190533 32.36155 20.1875 32.34375 C 20.198806 32.311611 20.17405 32.315533 20.15625 32.3125 C 20.124111 32.323806 20.128033 32.29905 20.125 32.28125 C 20.134839 32.254327 20.110902 32.249931 20.09375 32.25 C 20.09375 32.215 20.09375 32.19125 20.09375 32.15625 C 20.099129 32.137121 20.080815 32.120435 20.0625 32.125 C 20.012098 32.138981 20.002105 32.089677 19.96875 32.0625 C 19.932593 32.04331 19.936929 32.003153 19.9375 31.96875 C 19.913378 31.97432 19.88871 31.957066 19.875 31.9375 C 19.854458 31.906129 19.808925 31.88511 19.8125 31.84375 C 19.826316 31.794815 19.776902 31.78207 19.75 31.75 C 19.760741 31.712338 19.707839 31.68104 19.6875 31.65625 C 19.651174 31.631577 19.644221 31.584274 19.59375 31.59375 C 19.59375 31.548333 19.59375 31.514167 19.59375 31.46875 C 19.603589 31.441827 19.579652 31.437431 19.5625 31.4375 C 19.570962 31.408847 19.550599 31.392133 19.53125 31.375 C 19.539712 31.346347 19.519349 31.329633 19.5 31.3125 C 19.510997 31.268065 19.459444 31.24954 19.4375 31.21875 C 19.3125 31.177083 19.1875 31.135417 19.0625 31.09375 C 18.677083 31.0625 18.291667 31.03125 17.90625 31 C 17.75 30.96875 17.59375 30.9375 17.4375 30.90625 C 17.270833 30.895833 17.104167 30.885417 16.9375 30.875 C 16.659528 30.823524 16.371723 30.770225 16.09375 30.71875 C 15.927294 30.696553 15.760355 30.677477 15.59375 30.65625 C 15.524347 30.653347 15.475782 30.657076 15.40625 30.65625 C 15.391856 30.649811 15.339442 30.681392 15.34375 30.65625 C 15.355114 30.623636 15.330415 30.628335 15.3125 30.625 C 15.267088 30.616583 15.18657 30.638601 15.15625 30.59375 C 15.114025 30.576991 15.078323 30.598806 15.03125 30.59375 C 14.970117 30.600587 14.900126 30.584977 14.84375 30.5625 C 14.770833 30.552083 14.697917 30.541667 14.625 30.53125 C 14.5625 30.510417 14.5 30.489583 14.4375 30.46875 C 14.364583 30.458333 14.291667 30.447917 14.21875 30.4375 C 14.15625 30.416667 14.09375 30.395833 14.03125 30.375 C 13.954583 30.375 13.889167 30.375 13.8125 30.375 C 13.798106 30.368561 13.745692 30.400142 13.75 30.375 C 13.761306 30.342861 13.73655 30.346783 13.71875 30.34375 C 13.691827 30.353589 13.687431 30.329652 13.6875 30.3125 C 13.642083 30.3125 13.607917 30.3125 13.5625 30.3125 C 13.535577 30.322339 13.531181 30.298402 13.53125 30.28125 C 13.485833 30.28125 13.451667 30.28125 13.40625 30.28125 C 13.391856 30.274811 13.339442 30.306392 13.34375 30.28125 C 13.353589 30.254327 13.329652 30.249931 13.3125 30.25 C 13.27668 30.228937 13.23004 30.211349 13.1875 30.21875 C 13.160918 30.227832 13.21563 30.17687 13.1875 30.1875 C 13.160577 30.197339 13.156181 30.173402 13.15625 30.15625 C 13.09375 30.15625 13.03125 30.15625 12.96875 30.15625 C 12.940097 30.164712 12.923383 30.144349 12.90625 30.125 C 12.882128 30.13057 12.85746 30.113316 12.84375 30.09375 C 12.805757 30.076835 12.761568 30.099017 12.71875 30.09375 C 12.684458 30.104404 12.678015 30.082089 12.65625 30.0625 C 12.625065 30.010684 12.529711 30.055376 12.5 30 C 12.451583 29.983102 12.397018 30.005187 12.34375 30 C 12.315097 30.008462 12.298383 29.988099 12.28125 29.96875 C 12.249356 29.975182 12.214921 29.950018 12.1875 29.9375 C 12.135562 29.906049 12.073062 29.889251 12.03125 29.84375 C 11.993257 29.826835 11.949068 29.849017 11.90625 29.84375 C 11.871958 29.854404 11.865515 29.832089 11.84375 29.8125 C 11.82351 29.767457 11.741204 29.7897 11.71875 29.75 C 11.713769 29.720836 11.682303 29.777287 11.6875 29.75 C 11.698663 29.714671 11.643816 29.724101 11.625 29.71875 C 11.578029 29.713091 11.528539 29.737657 11.5 29.6875 C 11.471347 29.695962 11.454633 29.675599 11.4375 29.65625 C 11.239583 29.552083 11.041667 29.447917 10.84375 29.34375 C 10.78125 29.322917 10.71875 29.302083 10.65625 29.28125 C 10.59375 29.239583 10.53125 29.197917 10.46875 29.15625 C 10.414738 29.173269 10.393774 29.086359 10.34375 29.09375 C 10.294815 29.107566 10.28207 29.058152 10.25 29.03125 C 10.192854 29.047787 10.182186 28.952117 10.125 28.96875 C 10.027904 28.871654 9.9408453 28.784595 9.84375 28.6875 C 9.814128 28.67227 9.8133879 28.620882 9.8125 28.59375 C 9.7851672 28.542813 9.726677 28.514781 9.6875 28.46875 C 9.6458333 28.395833 9.6041667 28.322917 9.5625 28.25 C 9.5625 28.18375 9.5625 28.12875 9.5625 28.0625 C 9.5746443 28.032322 9.5270579 28.026884 9.53125 28 C 9.5214108 27.973077 9.5453481 27.968681 9.5625 27.96875 C 9.5625 27.90625 9.5625 27.84375 9.5625 27.78125 C 9.5815813 27.764006 9.6028367 27.747662 9.59375 27.71875 C 9.5772131 27.661604 9.6728828 27.650936 9.65625 27.59375 C 9.6477883 27.565097 9.668151 27.548383 9.6875 27.53125 C 9.6709631 27.474104 9.7666328 27.463436 9.75 27.40625 C 9.7759156 27.388633 9.7810919 27.348106 9.8125 27.34375 C 9.844639 27.355056 9.8407166 27.3303 9.84375 27.3125 C 9.832108 27.281063 9.8608642 27.289859 9.875 27.28125 C 9.9156616 27.260176 9.9040189 27.224493 9.90625 27.1875 C 9.8961015 27.159851 9.9203792 27.15663 9.9375 27.15625 C 9.9763364 27.173202 9.9951642 27.114688 10.03125 27.125 C 10.072862 27.107343 10.088308 27.060785 10.125 27.03125 C 10.14419 26.995093 10.184347 26.999429 10.21875 27 C 10.240287 26.969041 10.292794 26.950911 10.28125 26.90625 C 10.3263 26.917726 10.343019 26.863825 10.375 26.84375 C 10.413836 26.860702 10.432664 26.802188 10.46875 26.8125 C 10.510362 26.794843 10.525808 26.748285 10.5625 26.71875 C 10.58169 26.682593 10.621847 26.686929 10.65625 26.6875 C 10.65625 26.666667 10.65625 26.645833 10.65625 26.625 C 10.69125 26.625 10.715 26.625 10.75 26.625 C 10.782139 26.636306 10.778217 26.61155 10.78125 26.59375 C 10.769944 26.561611 10.7947 26.565533 10.8125 26.5625 C 10.842678 26.574644 10.848116 26.527058 10.875 26.53125 C 10.905178 26.543394 10.910616 26.495808 10.9375 26.5 C 10.964423 26.509839 10.968819 26.485902 10.96875 26.46875 C 11.010417 26.46875 11.052083 26.46875 11.09375 26.46875 C 11.122403 26.477212 11.139117 26.456849 11.15625 26.4375 C 11.180372 26.44307 11.20504 26.425816 11.21875 26.40625 C 11.256743 26.389335 11.300932 26.411517 11.34375 26.40625 C 11.34375 26.385417 11.34375 26.364583 11.34375 26.34375 C 11.375 26.34375 11.40625 26.34375 11.4375 26.34375 C 11.461438 26.310412 11.497896 26.301524 11.53125 26.28125 C 11.547544 26.254198 11.564322 26.245345 11.59375 26.25 C 11.620673 26.259839 11.625069 26.235902 11.625 26.21875 C 11.666667 26.21875 11.708333 26.21875 11.75 26.21875 C 11.767244 26.199669 11.783588 26.178413 11.8125 26.1875 C 11.841153 26.195962 11.857867 26.175599 11.875 26.15625 C 11.932146 26.172787 11.942814 26.077117 12 26.09375 C 12.090588 26.063554 12.190662 26.030196 12.28125 26 C 12.447414 25.956606 12.614728 25.917165 12.78125 25.875 C 12.92019 25.833565 13.0488 25.792297 13.1875 25.75 C 13.15625 25.729167 13.125 25.708333 13.09375 25.6875 C 13.033607 25.627357 12.966393 25.560143 12.90625 25.5 C 12.885708 25.468629 12.840175 25.44761 12.84375 25.40625 C 12.821145 25.360021 12.75311 25.322611 12.71875 25.28125 C 12.690343 25.267869 12.718488 25.231064 12.6875 25.21875 C 12.659093 25.205369 12.687238 25.168564 12.65625 25.15625 C 12.627232 25.117974 12.578929 25.118935 12.59375 25.0625 C 12.603589 25.035577 12.579652 25.031181 12.5625 25.03125 C 12.5625 24.99625 12.5625 24.9725 12.5625 24.9375 C 12.572339 24.910577 12.548402 24.906181 12.53125 24.90625 C 12.53125 24.864583 12.53125 24.822917 12.53125 24.78125 C 12.510417 24.78125 12.489583 24.78125 12.46875 24.78125 C 12.46875 24.742917 12.46875 24.694583 12.46875 24.65625 C 12.466769 24.600256 12.475662 24.553952 12.46875 24.5 C 12.441698 24.483706 12.432845 24.466928 12.4375 24.4375 C 12.427661 24.410577 12.451598 24.406181 12.46875 24.40625 C 12.46875 24.354167 12.46875 24.302083 12.46875 24.25 C 12.487831 24.232756 12.509087 24.216412 12.5 24.1875 C 12.519858 24.170161 12.540267 24.154299 12.53125 24.125 C 12.514298 24.086164 12.572812 24.067336 12.5625 24.03125 C 12.568159 23.984279 12.543593 23.934789 12.59375 23.90625 C 12.582753 23.861815 12.634306 23.84329 12.65625 23.8125 C 12.646932 23.782094 12.668165 23.768538 12.6875 23.75 C 12.723657 23.73081 12.719321 23.690653 12.71875 23.65625 C 12.775168 23.599832 12.818582 23.556417 12.875 23.5 C 12.919148 23.460939 12.981104 23.40574 13.03125 23.375 C 13.090238 23.354098 13.110986 23.289942 13.15625 23.25 C 13.212082 23.206309 13.25558 23.167203 13.3125 23.125 C 13.363176 23.09348 13.429597 23.045577 13.46875 23 C 13.500121 22.979458 13.52114 22.933925 13.5625 22.9375 C 13.611435 22.951316 13.62418 22.901902 13.65625 22.875 C 13.684903 22.883462 13.701617 22.863099 13.71875 22.84375 C 13.763185 22.854747 13.78171 22.803194 13.8125 22.78125 C 13.841153 22.789712 13.857867 22.769349 13.875 22.75 C 13.919435 22.760997 13.93796 22.709444 13.96875 22.6875 C 14.072917 22.645833 14.177083 22.604167 14.28125 22.5625 C 14.354167 22.520833 14.427083 22.479167 14.5 22.4375 C 14.833333 22.3125 15.166667 22.1875 15.5 22.0625 C 15.590496 22.04239 15.690754 22.020111 15.78125 22 C 15.875647 21.971087 15.968563 21.936824 16.0625 21.90625 C 16.155606 21.883092 16.250185 21.865251 16.34375 21.84375 C 16.448349 21.814156 16.551959 21.780773 16.65625 21.75 C 16.718053 21.736586 16.781463 21.73008 16.84375 21.71875 C 16.920456 21.699592 16.98621 21.677252 17.0625 21.65625 C 17.270833 21.614583 17.479167 21.572917 17.6875 21.53125 C 17.785 21.53125 17.87125 21.53125 17.96875 21.53125 C 17.983144 21.524811 18.035558 21.556392 18.03125 21.53125 C 18.021411 21.504327 18.045348 21.499931 18.0625 21.5 C 18.091153 21.508462 18.107867 21.488099 18.125 21.46875 C 18.205 21.46875 18.295 21.46875 18.375 21.46875 C 18.421971 21.463091 18.471461 21.487657 18.5 21.4375 C 18.5625 21.4375 18.625 21.4375 18.6875 21.4375 C 18.716153 21.445962 18.732867 21.425599 18.75 21.40625 C 18.774122 21.41182 18.79879 21.394566 18.8125 21.375 C 18.850493 21.358085 18.894682 21.380267 18.9375 21.375 C 18.9375 21.34 18.9375 21.31625 18.9375 21.28125 C 18.929574 21.235218 18.950886 21.155826 18.90625 21.125 C 18.889631 21.069384 18.911045 20.998014 18.90625 20.9375 C 18.900459 20.900584 18.928323 20.873921 18.90625 20.84375 C 18.876628 20.82852 18.875888 20.777132 18.875 20.75 C 18.880659 20.703029 18.856093 20.653539 18.90625 20.625 C 18.90625 20.555 18.90625 20.476249 18.90625 20.40625 C 18.911923 20.359702 18.887497 20.309436 18.9375 20.28125 C 18.9375 20.222083 18.9375 20.152917 18.9375 20.09375 C 18.944889 20.054163 18.934579 19.997246 18.96875 19.96875 C 18.99644 19.958405 18.946078 19.949923 18.96875 19.9375 C 19.004953 19.920265 18.989289 19.871545 19 19.84375 C 19.036157 19.82456 19.031821 19.784403 19.03125 19.75 C 19.059823 19.758479 19.078256 19.738948 19.09375 19.71875 C 19.09563 19.666464 19.086866 19.612714 19.09375 19.5625 C 19.129907 19.54331 19.125571 19.503153 19.125 19.46875 C 19.144081 19.451506 19.165337 19.435162 19.15625 19.40625 C 19.175331 19.389006 19.196587 19.372662 19.1875 19.34375 C 19.218872 19.319768 19.23425 19.28479 19.25 19.25 C 19.233048 19.211164 19.291562 19.192336 19.28125 19.15625 C 19.267276 19.102518 19.315617 19.09879 19.34375 19.0625 C 19.388793 19.04226 19.36655 18.959955 19.40625 18.9375 C 19.442576 18.912827 19.449529 18.865524 19.5 18.875 C 19.5 18.84375 19.5 18.8125 19.5 18.78125 C 19.519148 18.782859 19.552024 18.769331 19.5625 18.75 C 19.60994 18.71715 19.608983 18.677271 19.625 18.625 C 19.758234 18.471269 19.898017 18.309981 20.03125 18.15625 C 20.10295 18.082201 20.17743 18.01074 20.25 17.9375 C 20.329745 17.865625 20.419493 17.78981 20.5 17.71875 C 20.59467 17.641713 20.685357 17.575552 20.78125 17.5 C 20.957685 17.374126 21.135603 17.250251 21.3125 17.125 C 21.41857 17.059319 21.518252 17.00214 21.625 16.9375 C 21.979167 16.760417 22.333333 16.583333 22.6875 16.40625 C 22.809338 16.365637 22.940662 16.321863 23.0625 16.28125 C 23.191178 16.229489 23.30925 16.177903 23.4375 16.125 C 23.708333 16.041667 23.979167 15.958333 24.25 15.875 C 24.455065 15.833987 24.669935 15.791013 24.875 15.75 C 24.982895 15.719937 25.079986 15.687838 25.1875 15.65625 C 25.302083 15.635417 25.416667 15.614583 25.53125 15.59375 C 25.71875 15.583333 25.90625 15.572917 26.09375 15.5625 C 26.364583 15.520833 26.635417 15.479167 26.90625 15.4375 C 27.072917 15.427083 27.239583 15.416667 27.40625 15.40625 C 27.5625 15.416667 27.71875 15.427083 27.875 15.4375 C 28.027924 15.427305 28.190825 15.416445 28.34375 15.40625 C 28.447864 15.404671 28.552099 15.406713 28.65625 15.40625 C 28.760534 15.414312 28.86455 15.42777 28.96875 15.4375 C 29.076132 15.439861 29.173785 15.436808 29.28125 15.4375 C 29.46875 15.458333 29.65625 15.479167 29.84375 15.5 C 29.934167 15.5 30.034583 15.5 30.125 15.5 C 30.161916 15.505791 30.188579 15.477926 30.21875 15.5 C 30.23398 15.529622 30.285368 15.530362 30.3125 15.53125 C 30.349416 15.537041 30.376079 15.509176 30.40625 15.53125 C 30.419815 15.55785 30.443876 15.5632 30.46875 15.5625 C 30.514162 15.570917 30.59468 15.548899 30.625 15.59375 C 30.659659 15.610667 30.710504 15.588511 30.75 15.59375 C 30.796971 15.599409 30.846461 15.574843 30.875 15.625 C 30.951667 15.625 31.017083 15.625 31.09375 15.625 C 31.120673 15.615161 31.125069 15.639098 31.125 15.65625 C 31.153653 15.647788 31.170367 15.668151 31.1875 15.6875 C 31.257083 15.6875 31.336667 15.6875 31.40625 15.6875 C 31.443166 15.693291 31.469829 15.665426 31.5 15.6875 C 31.51523 15.717122 31.566618 15.717862 31.59375 15.71875 C 31.633337 15.726139 31.690254 15.71583 31.71875 15.75 C 31.729095 15.77769 31.737577 15.727327 31.75 15.75 C 31.763565 15.7766 31.787626 15.78195 31.8125 15.78125 C 31.857912 15.789667 31.93843 15.767649 31.96875 15.8125 C 32.006743 15.829415 32.050932 15.807233 32.09375 15.8125 C 32.124156 15.803182 32.13771 15.824415 32.15625 15.84375 C 32.175646 15.880414 32.215296 15.875289 32.25 15.875 C 32.277163 15.867115 32.310742 15.879605 32.3125 15.90625 C 32.301337 15.941579 32.356182 15.932149 32.375 15.9375 C 32.421971 15.943159 32.471461 15.918593 32.5 15.96875 C 32.572917 15.979167 32.645833 15.989583 32.71875 16 C 32.791667 16.020833 32.864583 16.041667 32.9375 16.0625 C 32.994001 16.03425 33.037249 15.997 33.09375 15.96875 C 33.196805 15.919844 33.306678 15.867915 33.40625 15.8125 C 33.437817 15.767237 33.499775 15.76414 33.53125 15.71875 C 33.560683 15.72809 33.575345 15.704789 33.59375 15.6875 C 33.632586 15.704452 33.651412 15.645938 33.6875 15.65625 C 33.723105 15.643561 33.750574 15.587092 33.78125 15.5625 C 33.790252 15.539614 33.797421 15.570719 33.8125 15.5625 C 33.828794 15.535448 33.845572 15.526595 33.875 15.53125 C 33.901923 15.541089 33.906319 15.517152 33.90625 15.5 C 33.933304 15.495547 33.983308 15.498221 34 15.46875 C 34.009002 15.445864 34.016171 15.476969 34.03125 15.46875 C 34.047544 15.441698 34.064322 15.432845 34.09375 15.4375 C 34.123928 15.449644 34.129366 15.402058 34.15625 15.40625 C 34.183173 15.416089 34.187569 15.392152 34.1875 15.375 C 34.225833 15.375 34.274165 15.375 34.3125 15.375 C 34.353656 15.38613 34.380656 15.338944 34.40625 15.3125 C 34.415252 15.289614 34.422421 15.320719 34.4375 15.3125 C 34.45669 15.276343 34.496847 15.280679 34.53125 15.28125 C 34.552787 15.250291 34.605294 15.232161 34.59375 15.1875 C 34.635417 15.1875 34.677083 15.1875 34.71875 15.1875 C 34.735994 15.168419 34.752338 15.147163 34.78125 15.15625 C 34.798494 15.137169 34.814838 15.115913 34.84375 15.125 C 34.867402 15.093625 34.903321 15.07927 34.9375 15.0625 C 34.971792 15.073154 34.978236 15.05084 35 15.03125 C 35.017235 14.995047 35.065953 15.010711 35.09375 15 C 35.114824 14.959339 35.150507 14.970981 35.1875 14.96875 C 35.214423 14.978589 35.218819 14.954652 35.21875 14.9375 C 35.285 14.9375 35.34 14.9375 35.40625 14.9375 C 35.436428 14.949644 35.441866 14.902058 35.46875 14.90625 C 35.495673 14.916089 35.500069 14.892152 35.5 14.875 C 35.541667 14.875 35.583333 14.875 35.625 14.875 C 35.61943 14.850878 35.636685 14.82621 35.65625 14.8125 C 35.690909 14.795583 35.741752 14.817739 35.78125 14.8125 C 35.828221 14.806841 35.877711 14.831407 35.90625 14.78125 C 35.989583 14.78125 36.072917 14.78125 36.15625 14.78125 C 36.184903 14.789712 36.201617 14.769349 36.21875 14.75 C 36.272762 14.767019 36.293724 14.680109 36.34375 14.6875 C 36.390721 14.681841 36.440211 14.706407 36.46875 14.65625 C 36.673787 14.625494 36.888712 14.593256 37.09375 14.5625 C 37.218571 14.550551 37.3438 14.542109 37.46875 14.53125 C 37.597278 14.511796 37.715392 14.489568 37.84375 14.46875 C 37.979167 14.458333 38.114583 14.447917 38.25 14.4375 z M 31.59375 40.5 C 31.680847 40.472029 31.769673 40.544117 31.8125 40.625 C 32.131711 41.16206 32.335726 41.778029 32.71875 42.28125 C 33.384776 43.145208 33.716264 44.187037 34.1875 45.15625 C 34.783585 46.166401 35.067115 47.306028 35.53125 48.375 C 36.232899 49.538196 36.382063 51.063649 35.8125 52.3125 C 35.160689 53.895184 33.42436 54.831347 31.75 54.71875 C 30.045731 54.669465 28.475415 53.410463 28 51.78125 C 27.598121 50.635864 27.964082 49.435379 28.4375 48.375 C 29.443391 45.770296 31.068503 43.365053 31.5 40.5625 C 31.521639 40.524346 31.564718 40.509324 31.59375 40.5 z "
       id="path2385" />
    <path
       style="opacity:0.18215613000000000;fill:#ffffff;fill-opacity:1;fill-rule:nonzero;stroke:none;stroke-width:1;stroke-linecap:butt;stroke-linejoin:round;stroke-miterlimit:4;stroke-dasharray:none;stroke-dashoffset:0;stroke-opacity:1;"
       d="M 32.344115,5.897777 C 17.716115,5.897777 5.8441143,17.769777 5.8441143,32.397777 C 5.8441143,38.572429 7.9553213,44.26587 11.500365,48.772777 C 9.9326378,45.390067 9.0316143,41.619199 9.0316143,37.647777 C 9.0316143,23.019777 20.903615,11.147777 35.531615,11.147777 C 43.991893,11.147777 51.553728,15.125213 56.406615,21.304027 C 52.204157,12.216393 43.008527,5.897777 32.344115,5.897777 z"
       id="path3177" />
    <path
       sodipodi:type="arc"
       style="opacity:1;fill:none;fill-opacity:1;fill-rule:nonzero;stroke:#205272;stroke-width:0.71473998000000005;stroke-linecap:butt;stroke-linejoin:round;stroke-miterlimit:4;stroke-dasharray:none;stroke-dashoffset:0;stroke-opacity:1"
       id="path2383"
       sodipodi:cx="36.599998"
       sodipodi:cy="31.299999"
       sodipodi:rx="21.9"
       sodipodi:ry="20.299999"
       d="M 58.499998,31.299999 A 21.9,20.299999 0 1 1 14.699999,31.299999 A 21.9,20.299999 0 1 1 58.499998,31.299999 z"
       transform="matrix(1.347032,0,0,1.453202,-17.301369,-13.485221)" />
  </g>
</svg>
